<mxfile host="Electron" agent="Mozilla/5.0 (Windows NT 10.0; Win64; x64) AppleWebKit/537.36 (KHTML, like Gecko) draw.io/28.1.2 Chrome/138.0.7204.243 Electron/37.4.0 Safari/537.36" version="28.1.2">
  <diagram name="Page-1" id="10lGnzjrJgzf-wFvk4gx">
    <mxGraphModel dx="868" dy="562" grid="1" gridSize="10" guides="1" tooltips="1" connect="1" arrows="1" fold="1" page="1" pageScale="1" pageWidth="850" pageHeight="1100" math="0" shadow="0">
      <root>
        <mxCell id="0" />
        <mxCell id="1" parent="0" />
        <mxCell id="6LjbJ7BkE8wF0Taldy1z-3" value="" style="edgeStyle=orthogonalEdgeStyle;rounded=0;orthogonalLoop=1;jettySize=auto;html=1;" edge="1" parent="1" source="6LjbJ7BkE8wF0Taldy1z-1">
          <mxGeometry relative="1" as="geometry">
            <mxPoint x="407.5" y="115" as="targetPoint" />
          </mxGeometry>
        </mxCell>
        <mxCell id="6LjbJ7BkE8wF0Taldy1z-5" value="" style="edgeStyle=orthogonalEdgeStyle;rounded=0;orthogonalLoop=1;jettySize=auto;html=1;" edge="1" parent="1" source="6LjbJ7BkE8wF0Taldy1z-1" target="6LjbJ7BkE8wF0Taldy1z-4">
          <mxGeometry relative="1" as="geometry" />
        </mxCell>
        <mxCell id="6LjbJ7BkE8wF0Taldy1z-1" value="start" style="ellipse;whiteSpace=wrap;html=1;" vertex="1" parent="1">
          <mxGeometry x="365" y="30" width="85" height="30" as="geometry" />
        </mxCell>
        <mxCell id="6LjbJ7BkE8wF0Taldy1z-7" value="" style="edgeStyle=orthogonalEdgeStyle;rounded=0;orthogonalLoop=1;jettySize=auto;html=1;" edge="1" parent="1" source="6LjbJ7BkE8wF0Taldy1z-4" target="6LjbJ7BkE8wF0Taldy1z-6">
          <mxGeometry relative="1" as="geometry" />
        </mxCell>
        <mxCell id="6LjbJ7BkE8wF0Taldy1z-4" value="Have words selected for the game&amp;nbsp;" style="whiteSpace=wrap;html=1;" vertex="1" parent="1">
          <mxGeometry x="347.5" y="125" width="120" height="60" as="geometry" />
        </mxCell>
        <mxCell id="6LjbJ7BkE8wF0Taldy1z-9" value="" style="edgeStyle=orthogonalEdgeStyle;rounded=0;orthogonalLoop=1;jettySize=auto;html=1;" edge="1" parent="1" source="6LjbJ7BkE8wF0Taldy1z-6" target="6LjbJ7BkE8wF0Taldy1z-8">
          <mxGeometry relative="1" as="geometry" />
        </mxCell>
        <mxCell id="6LjbJ7BkE8wF0Taldy1z-32" value="Yes" style="edgeLabel;html=1;align=center;verticalAlign=middle;resizable=0;points=[];" vertex="1" connectable="0" parent="6LjbJ7BkE8wF0Taldy1z-9">
          <mxGeometry x="-0.0848" y="-1" relative="1" as="geometry">
            <mxPoint as="offset" />
          </mxGeometry>
        </mxCell>
        <mxCell id="6LjbJ7BkE8wF0Taldy1z-11" value="" style="edgeStyle=orthogonalEdgeStyle;rounded=0;orthogonalLoop=1;jettySize=auto;html=1;" edge="1" parent="1" source="6LjbJ7BkE8wF0Taldy1z-6" target="6LjbJ7BkE8wF0Taldy1z-10">
          <mxGeometry relative="1" as="geometry" />
        </mxCell>
        <mxCell id="6LjbJ7BkE8wF0Taldy1z-33" value="No" style="edgeLabel;html=1;align=center;verticalAlign=middle;resizable=0;points=[];" vertex="1" connectable="0" parent="6LjbJ7BkE8wF0Taldy1z-11">
          <mxGeometry x="-0.1111" y="1" relative="1" as="geometry">
            <mxPoint as="offset" />
          </mxGeometry>
        </mxCell>
        <mxCell id="6LjbJ7BkE8wF0Taldy1z-6" value="if input matches with anu of the words" style="rhombus;whiteSpace=wrap;html=1;" vertex="1" parent="1">
          <mxGeometry x="367.5" y="255" width="80" height="80" as="geometry" />
        </mxCell>
        <mxCell id="6LjbJ7BkE8wF0Taldy1z-18" value="" style="edgeStyle=orthogonalEdgeStyle;rounded=0;orthogonalLoop=1;jettySize=auto;html=1;" edge="1" parent="1" source="6LjbJ7BkE8wF0Taldy1z-8">
          <mxGeometry relative="1" as="geometry">
            <mxPoint x="407.51428571428573" y="480" as="targetPoint" />
          </mxGeometry>
        </mxCell>
        <mxCell id="6LjbJ7BkE8wF0Taldy1z-8" value="reveal the position in the output" style="whiteSpace=wrap;html=1;" vertex="1" parent="1">
          <mxGeometry x="347.5" y="390" width="120" height="60" as="geometry" />
        </mxCell>
        <mxCell id="6LjbJ7BkE8wF0Taldy1z-23" value="" style="edgeStyle=orthogonalEdgeStyle;rounded=0;orthogonalLoop=1;jettySize=auto;html=1;" edge="1" parent="1" source="6LjbJ7BkE8wF0Taldy1z-10" target="6LjbJ7BkE8wF0Taldy1z-22">
          <mxGeometry relative="1" as="geometry" />
        </mxCell>
        <mxCell id="6LjbJ7BkE8wF0Taldy1z-10" value="adds a part of the hanged man" style="whiteSpace=wrap;html=1;" vertex="1" parent="1">
          <mxGeometry x="507.5" y="265" width="120" height="60" as="geometry" />
        </mxCell>
        <mxCell id="6LjbJ7BkE8wF0Taldy1z-16" value="" style="endArrow=classic;html=1;rounded=0;" edge="1" parent="1">
          <mxGeometry width="50" height="50" relative="1" as="geometry">
            <mxPoint x="560" y="260" as="sourcePoint" />
            <mxPoint x="457.5" y="220" as="targetPoint" />
            <Array as="points">
              <mxPoint x="560" y="220" />
            </Array>
          </mxGeometry>
        </mxCell>
        <mxCell id="6LjbJ7BkE8wF0Taldy1z-26" style="edgeStyle=orthogonalEdgeStyle;rounded=0;orthogonalLoop=1;jettySize=auto;html=1;entryX=0.5;entryY=0;entryDx=0;entryDy=0;" edge="1" parent="1" target="6LjbJ7BkE8wF0Taldy1z-24">
          <mxGeometry relative="1" as="geometry">
            <mxPoint x="450" y="520" as="sourcePoint" />
          </mxGeometry>
        </mxCell>
        <mxCell id="6LjbJ7BkE8wF0Taldy1z-34" value="Yes" style="edgeLabel;html=1;align=center;verticalAlign=middle;resizable=0;points=[];" vertex="1" connectable="0" parent="6LjbJ7BkE8wF0Taldy1z-26">
          <mxGeometry x="-0.5892" y="-1" relative="1" as="geometry">
            <mxPoint as="offset" />
          </mxGeometry>
        </mxCell>
        <mxCell id="6LjbJ7BkE8wF0Taldy1z-27" value="" style="edgeStyle=orthogonalEdgeStyle;rounded=0;orthogonalLoop=1;jettySize=auto;html=1;" edge="1" parent="1" target="6LjbJ7BkE8wF0Taldy1z-8">
          <mxGeometry relative="1" as="geometry">
            <mxPoint x="407.51428571428573" y="480" as="sourcePoint" />
          </mxGeometry>
        </mxCell>
        <mxCell id="6LjbJ7BkE8wF0Taldy1z-25" value="" style="edgeStyle=orthogonalEdgeStyle;rounded=0;orthogonalLoop=1;jettySize=auto;html=1;" edge="1" parent="1" source="6LjbJ7BkE8wF0Taldy1z-22" target="6LjbJ7BkE8wF0Taldy1z-24">
          <mxGeometry relative="1" as="geometry" />
        </mxCell>
        <mxCell id="6LjbJ7BkE8wF0Taldy1z-22" value="Game over if hangman is completed" style="whiteSpace=wrap;html=1;" vertex="1" parent="1">
          <mxGeometry x="507.5" y="390" width="120" height="60" as="geometry" />
        </mxCell>
        <mxCell id="6LjbJ7BkE8wF0Taldy1z-24" value="stop" style="ellipse;whiteSpace=wrap;html=1;" vertex="1" parent="1">
          <mxGeometry x="460" y="640" width="90" height="40" as="geometry" />
        </mxCell>
        <mxCell id="6LjbJ7BkE8wF0Taldy1z-28" value="Ask for input" style="rounded=1;whiteSpace=wrap;html=1;" vertex="1" parent="1">
          <mxGeometry x="357.5" y="200" width="100" height="35" as="geometry" />
        </mxCell>
        <mxCell id="6LjbJ7BkE8wF0Taldy1z-30" style="edgeStyle=orthogonalEdgeStyle;rounded=0;orthogonalLoop=1;jettySize=auto;html=1;" edge="1" parent="1" source="6LjbJ7BkE8wF0Taldy1z-29">
          <mxGeometry relative="1" as="geometry">
            <mxPoint x="280" y="220" as="targetPoint" />
          </mxGeometry>
        </mxCell>
        <mxCell id="6LjbJ7BkE8wF0Taldy1z-35" value="No" style="edgeLabel;html=1;align=center;verticalAlign=middle;resizable=0;points=[];" vertex="1" connectable="0" parent="6LjbJ7BkE8wF0Taldy1z-30">
          <mxGeometry x="-0.7732" relative="1" as="geometry">
            <mxPoint as="offset" />
          </mxGeometry>
        </mxCell>
        <mxCell id="6LjbJ7BkE8wF0Taldy1z-29" value="Word is complted" style="rhombus;whiteSpace=wrap;html=1;" vertex="1" parent="1">
          <mxGeometry x="370" y="480" width="77.5" height="80" as="geometry" />
        </mxCell>
        <mxCell id="6LjbJ7BkE8wF0Taldy1z-31" value="" style="endArrow=classic;html=1;rounded=0;entryX=0;entryY=0.5;entryDx=0;entryDy=0;" edge="1" parent="1" target="6LjbJ7BkE8wF0Taldy1z-28">
          <mxGeometry width="50" height="50" relative="1" as="geometry">
            <mxPoint x="280" y="217.21" as="sourcePoint" />
            <mxPoint x="347.5" y="217.21" as="targetPoint" />
          </mxGeometry>
        </mxCell>
      </root>
    </mxGraphModel>
  </diagram>
</mxfile>
